<svg xmlns="http://www.w3.org/2000/svg" width="200" height="128">
    <defs>
        <linearGradient id="linear-gradient" x1="20" y1="63.96" x2="49.32" y2="63.96" gradientUnits="userSpaceOnUse">
            <stop offset="0" stop-color="#0086bf"/>
            <stop offset="1" stop-color="#0588c0" stop-opacity="0"/>
        </linearGradient>
        <linearGradient id="linear-gradient-2" x1="38.6" y1="40.96" x2="45.06" y2="55.34" gradientUnits="userSpaceOnUse">
            <stop offset="0" stop-color="#0086bf"/>
            <stop offset=".36" stop-color="#0086bf" stop-opacity=".99"/>
            <stop offset=".5" stop-color="#0086bf" stop-opacity=".95"/>
            <stop offset=".61" stop-color="#0186bf" stop-opacity=".89"/>
            <stop offset=".7" stop-color="#0186bf" stop-opacity=".8"/>
            <stop offset=".77" stop-color="#0287bf" stop-opacity=".68"/>
            <stop offset=".84" stop-color="#0287bf" stop-opacity=".53"/>
            <stop offset=".91" stop-color="#0387c0" stop-opacity=".35"/>
            <stop offset=".96" stop-color="#0488c0" stop-opacity=".16"/>
            <stop offset="1" stop-color="#0588c0" stop-opacity="0"/>
        </linearGradient>
    </defs>
    
    <path d="M55.46 71.65v-3.06h.4v.06a2.75 2.75 0 002.3 2.28 4.57 4.57 0 002.59-.1 2.52 2.52 0 001-4 9.4 9.4 0 00-1.45-1.13c-1-.69-2-1.31-3-2.06a4.2 4.2 0 01-1.52-4.3A4.1 4.1 0 0159.33 56a13.82 13.82 0 014.16-.15c.57 0 1.12.12 1.71.19v3h-.47c-.52-1.74-1.79-2.48-3.8-2.18l-.39.07a2 2 0 00-1.67 1.38 2.23 2.23 0 00.47 2.36 8.92 8.92 0 001.42 1.09c1 .69 2.1 1.29 3.09 2a4.74 4.74 0 01.83 6.42 4.87 4.87 0 01-2.88 1.68 13.8 13.8 0 01-6.13-.18 1.08 1.08 0 01-.21-.03zM43.53 68.57h.41v3.08c-.77.13-1.49.3-2.23.38a13.51 13.51 0 01-6-.5 6.56 6.56 0 01-4.61-5.67 9 9 0 011-5.88 8.08 8.08 0 016.14-4.06 21.64 21.64 0 015.85.12v3.08h-.39a.9.9 0 01-.07-.14 1.88 1.88 0 00-1-1.52c-1.3-.78-4.56-.82-6 .52A5.46 5.46 0 0035 61a12.94 12.94 0 00.2 6.54 4.55 4.55 0 004.42 3.33 10.39 10.39 0 001.85-.1 2.15 2.15 0 002-2.06.9.9 0 01.06-.14zM53.06 71.61V72h-6.57v-.36l.13-.06A1.53 1.53 0 0048 70c0-.43.06-.87.06-1.31v-9.83a9.73 9.73 0 00-.06-1.1 1.32 1.32 0 00-1.25-1.37h-.21v-.42h6.53c.08.27 0 .41-.27.48a1.43 1.43 0 00-1.22 1.33 8.32 8.32 0 00-.1 1.11v10.86c0 .22.05.45.07.67a1.31 1.31 0 001.06 1.13zM137.59 65.89l-.12 1.65a11.61 11.61 0 00-1.3-.27 4.7 4.7 0 00-1.35.08.87.87 0 00-.5.51c-.12.3.11.52.38.65s.74.31 1.11.48a9.33 9.33 0 011 .5 2.2 2.2 0 011.12 2.3 2.36 2.36 0 01-1.46 2 5.33 5.33 0 01-2.82.33c-.53 0-1.05-.17-1.63-.27l.17-1.81a16.62 16.62 0 001.77.4 3.41 3.41 0 001.1 0 .69.69 0 00.61-.61.66.66 0 00-.42-.7c-.37-.2-.77-.34-1.15-.52a7.67 7.67 0 01-1.23-.67 2.23 2.23 0 01.08-3.62 3.73 3.73 0 011.77-.62 7 7 0 012.87.19zM173.52 76.41l.14-1.49h1a.79.79 0 00.7-1.1l-2.07-5.54c-.05-.13-.09-.27-.15-.43h2.31l1.26 4.31 1.25-4.31h2.23c-.37 1-.73 1.89-1.08 2.83-.46 1.19-.91 2.38-1.37 3.58-.06.15-.12.3-.19.44a3 3 0 01-4.03 1.71zM86.08 54.15l-.15 1.67a10 10 0 00-1.28-.21 5.21 5.21 0 00-1.58.16 2.05 2.05 0 00-1.52 1.88 2.51 2.51 0 002.71 3c.57 0 1.15-.11 1.77-.17l.14 1.67a7.37 7.37 0 01-4.8-.29 3.49 3.49 0 01-2.06-2.71 4.32 4.32 0 01.87-3.83 4.17 4.17 0 012.43-1.31 7.17 7.17 0 013.47.14zM94.16 62.26v-6.11h2l.09.89.1.11a1.45 1.45 0 01.22-.36 2.61 2.61 0 012.26-.79 2 2 0 011.83 2c.07 1.39 0 2.79 0 4.23h-2.1v-.51-3c0-.68-.3-1-.79-1.05a1.09 1.09 0 00-1.26.82 3.78 3.78 0 00-.13 1v2.7zM156.17 67.83h2.2V74h-1.91l-.1-.93a2.76 2.76 0 01-2.36 1.06 2 2 0 01-2.15-1.94c-.07-1.44 0-2.88 0-4.35H154v2.92a5.1 5.1 0 000 .68c0 .39.15.74.58.87a1 1 0 001.15-.32 1.62 1.62 0 00.41-1.16v-3zM131 62.48a9.37 9.37 0 01-1.35-.26 3.18 3.18 0 01.06-6 4.62 4.62 0 012.73 0 3.19 3.19 0 01-.29 6.15c-.36.03-.72.06-1.15.11zm-1.33-3.29a9.37 9.37 0 00.37 1.13 1.11 1.11 0 001.06.65 1.16 1.16 0 001.09-.69 2.25 2.25 0 000-2.15 1.18 1.18 0 00-2.1-.06 5.71 5.71 0 00-.44 1.12zM90.13 74h-2.08v-.42-2.82a3.13 3.13 0 000-.44c-.12-.58-.33-.81-.77-.86a1 1 0 00-1.28.64 4.63 4.63 0 00-.21 1.28v2.57h-2.17v-6.11h1.92l.11 1a2.77 2.77 0 012.28-1.12 2.06 2.06 0 012.17 2c.1 1.37.03 2.8.03 4.28zM115.5 74h-2.13v-.52-3c0-1-.85-1.4-1.58-.88a1.67 1.67 0 00-.52.84 4.36 4.36 0 00-.12 1.15v2.24a.53.53 0 010 .13H109v-6.12h1.93l.09.93.26-.24a2.66 2.66 0 012.38-.82 2.1 2.1 0 011.85 2.12c.02 1.35-.01 2.72-.01 4.17zM92.59 62.05a5.41 5.41 0 01-4.07 0 3.2 3.2 0 011.1-6 5.09 5.09 0 011.17 0 2.44 2.44 0 012.18 2c.12.55.13 1.11.2 1.72h-4.28a1.21 1.21 0 001 1.08 3.68 3.68 0 002.11-.13l.47-.18zm-1.4-3.49c-.12-.86-.42-1.17-1.08-1.17a1.2 1.2 0 00-1.22 1.14h.28zM122.89 71.51h-4.27a1.26 1.26 0 001 1 3.45 3.45 0 002.15-.16l.53-.18v1.26a.45.45 0 01-.2.33 5 5 0 01-4.19-.24 3.1 3.1 0 01-1.32-3.51 3 3 0 012.77-2.35 5 5 0 01.77 0 2.56 2.56 0 012.6 2.12 4.52 4.52 0 01.13.82c.05.3.03.57.03.91zm-2-1.29c-.06-.76-.35-1.09-1-1.14a1.24 1.24 0 00-1.34 1.14zM144.57 72.21v1c0 .57 0 .58-.51.72a5.58 5.58 0 01-3 0 3.19 3.19 0 01.52-6.24 5.24 5.24 0 011.12 0 2.43 2.43 0 012.22 1.88 17.9 17.9 0 01.27 1.89h-4.32a1.13 1.13 0 00.81 1 3.34 3.34 0 002.33-.06zm-1.39-2c0-.72-.31-1.08-.94-1.14a1.23 1.23 0 00-1.34 1.14zM113.25 59.82h-4.19a1.18 1.18 0 001 1.06 3.68 3.68 0 002.15-.16l.45-.17.09 1.5a5.13 5.13 0 01-4.46-.19 3.12 3.12 0 01-1.29-3.55 3 3 0 012.79-2.31 4.9 4.9 0 011.21 0 2.62 2.62 0 012.24 2.56 12 12 0 01.01 1.26zm-2-1.28c0-.75-.33-1.13-1-1.15a1.15 1.15 0 00-1.22 1.15zM98.45 71.48a1.27 1.27 0 001 1.08 3.46 3.46 0 002.11-.14l.51-.18v1.48a4.85 4.85 0 01-4.64-.35 3.08 3.08 0 01-1-3.2 2.82 2.82 0 012.25-2.35 5 5 0 011.64-.09 2.38 2.38 0 012.21 1.88 17.21 17.21 0 01.26 1.87zm2.28-1.25a1 1 0 00-.89-1.15 1.22 1.22 0 00-1.36 1.15zM125.42 56.12H127v1.49h-1.44v4.65h-2.19v-4.62h-1.21v-1.52h1.16c0-.39 0-.75.11-1.09a1.79 1.79 0 011.67-1.63 17.74 17.74 0 011.94 0l-.11 1.45c-.42.06-.92-.17-1.18.27a4.16 4.16 0 00-.33 1zM95.7 72.57v1.37a4.44 4.44 0 01-2.7-.13 1.6 1.6 0 01-.93-1.44c0-.8 0-1.62-.06-2.43v-.62h-1.1v-1.5h1.19v-1.36l2.05-.68v2h1.43v1.5h-1.39V71.68c0 .72.28 1 1 .91zM128.17 72.57v1.37a4.41 4.41 0 01-2.66-.13 1.62 1.62 0 01-1-1.48V69.32h-1.1v-1.5h1.19v-1.37l2.05-.67v2h1.45v1.48h-1.44v2.41c0 .72.28 1 1 .91zM104.74 56.12h1.46v1.49h-1.42v2.7a.57.57 0 00.59.58h.83l.11 1.34a4.64 4.64 0 01-2.64-.08 1.74 1.74 0 01-1.05-1.77v-2.77h-1.14v-1.48h1.2v-1.37l2-.67zM172.71 72.59l.09 1.34a4.48 4.48 0 01-2.71-.12 1.66 1.66 0 01-1-1.57v-2.92H168v-1.49h1.18v-1.38l2.06-.67v2h1.44v1.49h-1.41v2.75a.56.56 0 00.59.54c.28.04.55.03.85.03zM79.94 65.75h2.24V74h-2.24zM150.87 67.88l-.15 1.59c-.91-.16-1.85-.45-2.42.54a1.64 1.64 0 00.07 1.88c.63.83 1.51.62 2.44.36v1.36a.45.45 0 01-.26.31 4.39 4.39 0 01-2.82-.12 2.75 2.75 0 01-1.81-2.54 3 3 0 013.31-3.51c.52 0 1.05.08 1.64.13zM114.29 56.15h1.87l.07 1 .08.07a1.89 1.89 0 012.37-1.11v1.78a7.48 7.48 0 00-.75-.07 1.21 1.21 0 00-1.3 1 6.64 6.64 0 00-.17 1.34v2.2h-2.17zM105.9 74h-2.19v-6.16h1.91v1.07l.09.08a1.9 1.9 0 012.47-1.23l-.08 1.78a4.64 4.64 0 00-.48-.07 1.3 1.3 0 00-1.62 1.07 6 6 0 00-.13 1.2c.01.73.03 1.46.03 2.26zM135.7 56.15h1.87l.07 1.05a2 2 0 012.51-1.13l-.09 1.8-.27-.06a1.39 1.39 0 00-1.85 1.32c-.09.84-.07 1.68-.1 2.53v.61h-2.14zM161.91 74h-2.16v-6.16h1.85l.09 1a6.43 6.43 0 011-.94 2 2 0 011.43-.11v1.8l-.49-.07a1.31 1.31 0 00-1.63 1.11c-.1.71-.08 1.45-.11 2.18.01.37.02.74.02 1.19zM165 67.84h2.12v6.1H165zM167.14 65.39v1.55H165v-1.55z" fill="#033d5d"/>
    <path d="M47.85 93.26a29.32 29.32 0 011.47-58.6v1.18a28.14 28.14 0 00-1.41 56.25z" fill="url(#linear-gradient)"/>
    <path d="M25.07 67.58a25.32 25.32 0 01-.26-3.6 24.51 24.51 0 0141.84-17.33l-.83.83a23.35 23.35 0 00-39.59 19.93z" fill="url(#linear-gradient-2)"/>
</svg>
