<svg xmlns="http://www.w3.org/2000/svg" xmlns:xlink="http://www.w3.org/1999/xlink" width="200" height="128">
    <linearGradient id="linear-gradient" x1="55.28" y1="64" x2="145.28" y2="64" gradientUnits="userSpaceOnUse">
        <stop offset="0" stop-color="#14bcee"/>
        <stop offset="1" stop-color="#2161ad"/>
    </linearGradient>
    <linearGradient id="linear-gradient-2" x1="134.53" y1="63.84" x2="65.98" y2="63.84" xlink:href="#linear-gradient"/>
    <circle cx="100.28" cy="64" r="45" fill="url(#linear-gradient)"/>
    <circle cx="100.34" cy="63.84" r="34.8" fill="url(#linear-gradient-2)"/>
    <path fill="#fff" d="M73.1 91a1 1 0 01.52.28.86.86 0 01.28.55.63.63 0 01-.2.52l.19.18a.92.92 0 00.24-.43 1 1 0 000-.51 1.41 1.41 0 00-.32-.47 1.22 1.22 0 00-.69-.36.7.7 0 00-.62.21.69.69 0 00-.18.65 2.23 2.23 0 00.3.7 1.87 1.87 0 01.27.67.48.48 0 01-.15.42.47.47 0 01-.45.15.91.91 0 01-.53-.29 1 1 0 01-.34-.59.61.61 0 01.18-.54l-.23-.14a.88.88 0 00-.23.45.91.91 0 00.07.53 1.52 1.52 0 00.35.5 1.28 1.28 0 00.71.38.68.68 0 00.62-.22.74.74 0 00.21-.36 1.12 1.12 0 000-.44 3.51 3.51 0 00-.29-.61 1.75 1.75 0 01-.26-.62.49.49 0 01.14-.41.5.5 0 01.41-.2zM76.13 94.12a1.19 1.19 0 000-.65 1.22 1.22 0 00-.38-.54 1.13 1.13 0 00-1.25-.16 1.87 1.87 0 00-.6.48l-.2.24a1.51 1.51 0 00-.42 1 1.07 1.07 0 00.42.86 1.11 1.11 0 00.6.28 1.25 1.25 0 00.65-.11 1.9 1.9 0 00.59-.49l.24-.28a1.8 1.8 0 00.35-.63zm-.79.77a1.47 1.47 0 01-.76.52.92.92 0 01-1.07-.9 1.39 1.39 0 01.37-.84l.21-.25a1.34 1.34 0 01.77-.51.92.92 0 011.06.89 1.36 1.36 0 01-.37.84zM78 94.69a1.18 1.18 0 00-.61-.23 1.14 1.14 0 00-.63.16 2 2 0 00-.55.51l-.23.33a1.76 1.76 0 00-.31.67 1.15 1.15 0 000 .64 1.18 1.18 0 00.39.5 1.17 1.17 0 00.8.25 1.1 1.1 0 00.72-.4l-.16-.12a.9.9 0 01-.56.33.86.86 0 01-.62-.2.78.78 0 01-.34-.65 1.35 1.35 0 01.3-.84l.22-.31a1.37 1.37 0 01.72-.56.81.81 0 01.73.14.79.79 0 01.23 1.09l.22.15a1.12 1.12 0 00.16-.8 1.09 1.09 0 00-.48-.66zM80.63 97.41l-.47-.29.15-.24a.51.51 0 01.29-.26.38.38 0 01.35.06.94.94 0 01.19.14l.12-.17a.87.87 0 00-.21-.17.62.62 0 00-.53-.1.72.72 0 00-.43.37l-.15.24-.33-.2-.1.18.32.2L78.74 99l.22.13 1.09-1.8.47.29zM82.31 98.65a.94.94 0 00-.5-.64 1.06 1.06 0 00-.54-.12 1 1 0 00-.52.19 1.43 1.43 0 00-.4.47 1.27 1.27 0 00-.16.89 1 1 0 00.51.64 1 1 0 00.54.12.92.92 0 00.51-.19 1.32 1.32 0 00.4-.47 1.21 1.21 0 00.16-.89zm-.37.76a1.09 1.09 0 01-.52.52.72.72 0 01-1-.54 1.07 1.07 0 01.13-.7 1.13 1.13 0 01.53-.51.68.68 0 01.62 0 .76.76 0 01.3.29.87.87 0 01.08.43 1.22 1.22 0 01-.14.51zM83.24 99.2l.15-.33-.23-.11-1 2.09.23.11.68-1.44a.87.87 0 01.38-.25.66.66 0 01.43.06.6.6 0 01.15.09l.1-.21a.32.32 0 00-.14-.1.67.67 0 00-.75.09zM87.35 100.61a.91.91 0 000-.49.87.87 0 00-.24-.45 1.33 1.33 0 00-.47-.31 1.26 1.26 0 00-.78-.06.69.69 0 00-.48.44.7.7 0 00.08.67 2.33 2.33 0 00.55.53 1.91 1.91 0 01.52.5.51.51 0 010 .45.55.55 0 01-.36.32 1.07 1.07 0 01-.6-.06 1.1 1.1 0 01-.55-.41.64.64 0 010-.57l-.25-.1a1 1 0 000 .51.92.92 0 00.23.42 1.45 1.45 0 00.52.33 1.25 1.25 0 00.8.06.68.68 0 00.49-.44.89.89 0 000-.42 1 1 0 00-.2-.39 3.62 3.62 0 00-.51-.45 1.71 1.71 0 01-.47-.46.44.44 0 010-.43.48.48 0 01.34-.31 1 1 0 01.59 0 .87.87 0 01.48.39.68.68 0 010 .56zM88.68 100.9a.87.87 0 00-.53 0 1.14 1.14 0 00-.47.3 1.44 1.44 0 00-.3.53v.09a1.21 1.21 0 000 .59 1 1 0 00.23.5 1.06 1.06 0 00.47.3.91.91 0 00.9-.15l-.12-.16a.71.71 0 01-.34.14.8.8 0 01-.37 0 .71.71 0 01-.46-.42 1 1 0 010-.69l1.58.49v-.14a1.15 1.15 0 000-.82.84.84 0 00-.59-.56zM89 102l-1.32-.42a1 1 0 01.39-.47.7.7 0 01.53-.06.63.63 0 01.39.34.87.87 0 01.01.61zM90.15 101.75l.09-.36-.24-.06-.58 2.23.25.07.39-1.54a.75.75 0 01.33-.31.63.63 0 01.43 0 .44.44 0 01.16.06l.06-.23a.35.35 0 00-.15-.07.7.7 0 00-.74.21zM91.75 103.76l-.29-2.06-.25-.06.37 2.44.2.05 1.32-2.09-.26-.05-1.09 1.77zM93.79 101.3a.15.15 0 00-.13 0 .14.14 0 00-.07.11.15.15 0 000 .13.18.18 0 00.12.07.14.14 0 00.13 0 .16.16 0 00.07-.11.15.15 0 000-.13.15.15 0 00-.12-.07z"/>
    <path fill="#fff" transform="rotate(-80.42 93.456 103.263)" d="M92.3 103.14h2.31v.26H92.3z"/>
    <path fill="#fff" d="M94.44 103.39a1.15 1.15 0 01.27-.67.64.64 0 01.57-.18.66.66 0 01.42.22.62.62 0 01.14.46h.25a.84.84 0 00-.19-.62.87.87 0 00-.59-.3.89.89 0 00-.93.43 1.53 1.53 0 00-.2.59v.07a1.3 1.3 0 00.16.88.88.88 0 00.68.4.93.93 0 00.44 0 .77.77 0 00.35-.23.62.62 0 00.18-.36h-.24a.56.56 0 01-.24.36.73.73 0 01-.47.09.64.64 0 01-.5-.31 1.07 1.07 0 01-.1-.71zM97.52 102.54a.92.92 0 00-.51.12 1 1 0 00-.39.39 1.4 1.4 0 00-.17.59v.09a1.27 1.27 0 00.1.59 1 1 0 00.34.43.93.93 0 00.52.18.9.9 0 00.84-.35l-.15-.13a.78.78 0 01-.3.22.85.85 0 01-.36 0 .75.75 0 01-.55-.3 1 1 0 01-.18-.67l1.65.12v-.15a1.18 1.18 0 00-.2-.8.83.83 0 00-.64-.33zm.59 1l-1.39-.1a1.07 1.07 0 01.28-.55.62.62 0 01.5-.17.57.57 0 01.5.28.83.83 0 01.15.55zM102.15 102.46a1.12 1.12 0 00-.43-.48 1.15 1.15 0 00-.64-.16 1.2 1.2 0 00-.63.19 1.1 1.1 0 00-.41.51 1.87 1.87 0 00-.14.76v.32a1.58 1.58 0 00.36 1.05 1.11 1.11 0 00.89.36 1 1 0 00.63-.19 1.1 1.1 0 00.41-.51 1.62 1.62 0 00.13-.75v-.37a1.67 1.67 0 00-.17-.73zm-.31 2a.83.83 0 01-.69.34.87.87 0 01-.7-.31 1.35 1.35 0 01-.28-.87v-.33a1.39 1.39 0 01.24-.89.86.86 0 01.68-.34.84.84 0 01.71.3 1.42 1.42 0 01.27.88v.33a1.4 1.4 0 01-.23.88zM103.8 102.47a.66.66 0 00-.62.46v-.37h-.24l.18 2.3h.25l-.12-1.58a.69.69 0 01.2-.4.61.61 0 01.39-.17h.16v-.23a.46.46 0 00-.2-.01zM105.85 102.27v.33a.8.8 0 00-.76-.28.79.79 0 00-.61.4 1.37 1.37 0 00-.12.88 1.48 1.48 0 00.35.83.76.76 0 00.68.23.81.81 0 00.67-.43v.29a.81.81 0 01-.12.55.66.66 0 01-.47.25.79.79 0 01-.68-.25l-.13.17a.88.88 0 00.38.24 1.08 1.08 0 00.47 0 .87.87 0 00.64-.35.93.93 0 00.16-.73l-.29-2.24zm-.41 2.2a.58.58 0 01-.53-.19 1.29 1.29 0 01-.26-.67 1.26 1.26 0 01.08-.76.58.58 0 01.47-.32.7.7 0 01.41.06.69.69 0 01.3.31l.14 1.06a.68.68 0 01-.61.51zM108.7 103.57l-.21-1.08a.71.71 0 00-.33-.48.93.93 0 00-.63-.08 1 1 0 00-.58.32.57.57 0 00-.16.52h.25a.38.38 0 01.11-.35.64.64 0 01.41-.22.63.63 0 01.46 0 .52.52 0 01.22.36l.05.26-.45.08a1.42 1.42 0 00-.73.34.64.64 0 00-.18.58.59.59 0 00.29.42.73.73 0 00.57.08.88.88 0 00.41-.17.91.91 0 00.29-.33 1.08 1.08 0 00.11.31l.27-.06a1.27 1.27 0 01-.17-.5zm-.5.32a1 1 0 01-.43.21.51.51 0 01-.39-.06.38.38 0 01-.2-.29.42.42 0 01.14-.4 1.22 1.22 0 01.56-.26l.45-.08.1.5a.75.75 0 01-.23.38zM110.56 101.45a.69.69 0 00-.59-.07.84.84 0 00-.39.22.9.9 0 00-.23.39l-.11-.38-.24.06.58 2.24.24-.06-.39-1.53a1 1 0 01.16-.46.72.72 0 01.37-.25.53.53 0 01.44 0 .65.65 0 01.24.41l.38 1.47.25-.06-.38-1.47a.92.92 0 00-.33-.51z"/>
    <path fill="#fff" transform="rotate(-16.87 111.771 102.102)" d="M111.67 100.96h.26v2.31h-.26z"/>
    <path fill="#fff" d="M111.44 100.32a.18.18 0 00-.08-.11.22.22 0 00-.14 0 .2.2 0 00-.11.09.19.19 0 000 .13.2.2 0 00.08.1.17.17 0 00.14 0 .19.19 0 00.11-.08.2.2 0 000-.13zM113.08 102.7l.7-2.26-.06-.18-1.59.55.07.21 1.29-.45-.7 2.26.06.17 1.71-.59-.07-.21-1.41.5zM116.43 101.08l-.42-1a.69.69 0 00-.41-.41.91.91 0 00-.64 0 1 1 0 00-.51.43.62.62 0 000 .54l.24-.1a.41.41 0 010-.37.75.75 0 01.36-.29.61.61 0 01.47 0 .53.53 0 01.29.3l.1.24-.43.18a1.37 1.37 0 00-.65.48.64.64 0 00-.06.6.62.62 0 00.37.36.76.76 0 00.57 0 1 1 0 00.37-.25.86.86 0 00.22-.38 1 1 0 00.17.28l.25-.11a1.41 1.41 0 01-.29-.5zm-.42.41a.79.79 0 01-.38.29.54.54 0 01-.39 0 .43.43 0 01-.26-.25.41.41 0 01.06-.42 1.12 1.12 0 01.5-.36l.42-.17.19.47a.68.68 0 01-.15.44zM117.9 100.78a.25.25 0 01-.25 0 .57.57 0 01-.19-.23l-.65-1.4.43-.2-.09-.19-.43.2-.26-.53-.23.11.25.53-.38.18.09.19.38-.18.66 1.4a.63.63 0 00.3.35.46.46 0 00.41 0 .91.91 0 00.23-.15l-.1-.18zM117.37 97.73a.15.15 0 00-.09.1.19.19 0 000 .13.22.22 0 00.1.09.18.18 0 00.14 0 .18.18 0 00.09-.1.2.2 0 000-.13.28.28 0 00-.1-.09.18.18 0 00-.14 0z"/>
    <path fill="#fff" transform="rotate(-26.94 118.287 99.516)" d="M118.14 98.35h.26v2.31h-.26z"/>
    <path fill="#fff" d="M120.71 98.16a1.29 1.29 0 00-.68-.61 1 1 0 00-.81.09 1 1 0 00-.39.39 1 1 0 00-.11.54 1.34 1.34 0 00.18.59 1.27 1.27 0 00.67.61 1 1 0 00.81-.09 1 1 0 00.39-.39 1 1 0 00.12-.54 1.56 1.56 0 00-.19-.59zm-.41 1.37a.68.68 0 01-.62 0 1 1 0 01-.52-.49 1 1 0 01-.16-.71.73.73 0 01.76-.61.9.9 0 01.41.16 1.23 1.23 0 01.33.38 1.09 1.09 0 01.16.72.69.69 0 01-.36.55zM122 96.19a.69.69 0 00-.58.13.8.8 0 00-.3.33.93.93 0 00-.09.45l-.22-.33-.21.13 1.26 1.94.21-.14-.86-1.33a.87.87 0 010-.48.63.63 0 01.27-.35.52.52 0 01.43-.1.67.67 0 01.36.32l.83 1.27.21-.14-.82-1.27a1 1 0 00-.49-.43zM124.65 95.79a.69.69 0 00-.33 0 2.44 2.44 0 00-.5.17 1.38 1.38 0 01-.48.13.31.31 0 01-.26-.14.33.33 0 010-.32.66.66 0 01.26-.33.61.61 0 01.42-.15.4.4 0 01.34.17l.21-.15a.62.62 0 00-.49-.26 1.08 1.08 0 00-1 .7.55.55 0 00.09.5.54.54 0 00.24.19.67.67 0 00.32 0 2.34 2.34 0 00.48-.17 1.34 1.34 0 01.47-.13.41.41 0 01.31.16.37.37 0 010 .34.74.74 0 01-.28.35.76.76 0 01-.45.15.48.48 0 01-.36-.17l-.21.15a.6.6 0 00.5.25 1 1 0 00.64-.23.93.93 0 00.39-.51.55.55 0 00-.08-.51.59.59 0 00-.23-.19z"/>
    <path fill="#fff" transform="rotate(-41.79 126.73 93.579)" d="M126.63 91.74h.22v3.69h-.22z"/>
    <path fill="#fff" d="M130.33 90a.89.89 0 00-.45 0 2.17 2.17 0 00-.58.26 1.52 1.52 0 01-.51.23.33.33 0 01-.32-.07.37.37 0 01-.13-.32.77.77 0 01.59-.61.49.49 0 01.38.14l.37-.39a1 1 0 00-.46-.23.93.93 0 00-.52.07 1.21 1.21 0 00-.48.34 1.25 1.25 0 00-.36.75.75.75 0 00.25.65.83.83 0 00.8.16 2.54 2.54 0 00.59-.28 1.83 1.83 0 01.51-.23.41.41 0 01.34.11.36.36 0 01.12.31.66.66 0 01-.2.39.78.78 0 01-.45.27.5.5 0 01-.42-.15l-.36.4a.83.83 0 00.48.23 1.08 1.08 0 00.55-.09 1.52 1.52 0 00.51-.37 1.28 1.28 0 00.38-.75.74.74 0 00-.25-.64.85.85 0 00-.38-.18zM132.16 88.67a.68.68 0 01-.14.63.57.57 0 01-.4.23.68.68 0 01-.47-.14l.95-1.17-.16-.13a1.23 1.23 0 00-.83-.34.91.91 0 00-.69.38 1 1 0 00-.22.51 1.09 1.09 0 00.09.56 1.33 1.33 0 00.4.49h.05a1.17 1.17 0 00.84.29 1.08 1.08 0 00.74-.43 1.21 1.21 0 00.24-.48.9.9 0 000-.49zm-1.52.09a.45.45 0 01.1-.37.46.46 0 01.32-.18.67.67 0 01.39.14l-.62.77a.86.86 0 01-.19-.36zM132.25 86.54a1.14 1.14 0 01.14-.16l-.39-.29a.4.4 0 00-.13.13.61.61 0 00-.07.6l-.21-.15-.29.41 1.86 1.36.31-.42-1.28-.93a.47.47 0 01.06-.55zM132.92 84.72l1.12 1.32-1.66-.49-.29.45 2.37.59.25-.38-1.49-1.93-.3.44z"/>
    <path fill="#fff" transform="rotate(-59.1 134.525 84.342)" d="M134.25 83.19h.52v2.31h-.52z"/>
    <path fill="#fff" d="M133.06 83.73a.36.36 0 00.23-.38.26.26 0 00-.13-.16.27.27 0 00-.21 0 .32.32 0 00-.18.15.26.26 0 000 .22.27.27 0 00.13.17.29.29 0 00.16 0zM136.2 82.12l-.23.43a.44.44 0 01.18.26.43.43 0 01-.05.33.48.48 0 01-.35.26 1 1 0 01-.56-.15h-.07a.91.91 0 01-.43-.38.47.47 0 010-.43.4.4 0 01.27-.22.43.43 0 01.35 0l.23-.43a.9.9 0 00-.68-.06 1 1 0 00-.54.48 1 1 0 00-.08.83 1.23 1.23 0 00.61.65 1.22 1.22 0 00.9.16.94.94 0 00.64-.52 1.1 1.1 0 00.13-.47 1 1 0 00-.1-.44.78.78 0 00-.22-.3zM137.19 80.28a.71.71 0 010 .65.56.56 0 01-.33.31.7.7 0 01-.49 0l.64-1.37-.19-.08a1.25 1.25 0 00-.88-.13.91.91 0 00-.58.53 1.07 1.07 0 00-.09.55.94.94 0 00.23.52 1.32 1.32 0 00.5.39h.06a1.1 1.1 0 00.88.07 1.05 1.05 0 00.62-.59 1.09 1.09 0 00.11-.52 1 1 0 00-.13-.47zm-1.15.77a.7.7 0 01-.3-.32.49.49 0 01.27-.63.64.64 0 01.42 0zM138.72 76.25a1.91 1.91 0 00-.7-.41l-.16-.06a1.82 1.82 0 00-.81-.11 1.16 1.16 0 00-1 .83 1.17 1.17 0 000 .69 1.22 1.22 0 00.35.61 1.87 1.87 0 00.7.42l.17.06a1.88 1.88 0 00.8.1 1.17 1.17 0 00.64-.25 1.19 1.19 0 00.4-.58 1.18 1.18 0 000-.69 1.15 1.15 0 00-.39-.61zm-.12 1.16a.65.65 0 01-.45.43 1.4 1.4 0 01-.81-.08l-.17-.06a1.29 1.29 0 01-.66-.45.63.63 0 01-.08-.61.67.67 0 01.45-.43 1.41 1.41 0 01.81.08l.15.06a1.3 1.3 0 01.69.45.63.63 0 01.07.61zM138.07 74.27a1.07 1.07 0 01.07-.19l-.46-.14a.38.38 0 00-.08.17.55.55 0 00.14.58l-.25-.06-.14.48 2.22.64.15-.5-1.52-.44a.46.46 0 01-.13-.54zM140.4 72.26l-2.19-.51-.1.46.22.07a.79.79 0 00-.41.55.81.81 0 00.16.72 1.37 1.37 0 00.78.45 1.43 1.43 0 00.93 0 .8.8 0 00.46-.57.74.74 0 00-.11-.64h.16a.53.53 0 01.36.24.56.56 0 01.05.43.75.75 0 01-.41.51l.24.31a.9.9 0 00.36-.3 1.28 1.28 0 00.21-.46 1.07 1.07 0 00-.08-.8 1 1 0 00-.63-.46zm-.81 1.23a.91.91 0 01-.57 0 1 1 0 01-.55-.27.46.46 0 01-.11-.44.48.48 0 01.36-.38l1 .23a.48.48 0 01.16.51.46.46 0 01-.29.35zM140.91 69.75a1.17 1.17 0 01-.5 0l-1-.18a.79.79 0 00-.61.15 1 1 0 00-.31.61 1.33 1.33 0 000 .49.82.82 0 00.2.38.54.54 0 00.33.18l.08-.51a.24.24 0 01-.2-.15.42.42 0 010-.3.36.36 0 01.16-.28.38.38 0 01.3 0h.15l-.06.32a1.35 1.35 0 00.07.8.66.66 0 00.51.37.65.65 0 00.52-.14.8.8 0 00.29-.53.82.82 0 00-.15-.64.65.65 0 00.22 0zm-.68 1.25a.36.36 0 01-.25.06.33.33 0 01-.26-.19.8.8 0 010-.45l.05-.27.43.07a.53.53 0 01.16.23.52.52 0 010 .3.4.4 0 01-.13.25zM138.77 67.77a.82.82 0 00.24.7h-.27l-.05.48 2.3.25v-.52l-1.64-.17a.53.53 0 01-.23-.5.43.43 0 01.14-.3.54.54 0 01.33-.06l1.49.16.06-.51-1.52-.17c-.5-.06-.8.16-.85.64zM138.35 65.9a.29.29 0 00-.2.07.26.26 0 00-.09.21.25.25 0 00.06.22.25.25 0 00.2.09.28.28 0 00.2-.06.34.34 0 00.09-.21.33.33 0 00-.07-.23.31.31 0 00-.19-.09z"/>
    <path fill="#fff" transform="rotate(-86.52 140.087 66.306)" d="M139.83 65.15h.52v2.31h-.52z"/>
    <path fill="#fff" d="M140.89 64.91l-1.54-1.21-.33-.01-.04 1.81h.42l.02-1.15 1.53 1.21h.34l.04-1.87-.42-.01-.02 1.23zM139.68 61.41a.74.74 0 00-.56.27.94.94 0 00-.18.66 1.06 1.06 0 00.11.48.89.89 0 00.27.33.53.53 0 00.36.11v-.52a.26.26 0 01-.23-.1.5.5 0 01-.1-.29.43.43 0 01.1-.31.42.42 0 01.28-.11h.15v.31a1.39 1.39 0 00.23.78.65.65 0 00.58.25.62.62 0 00.48-.23.82.82 0 00.18-.58.81.81 0 00-.28-.6l.21-.06v-.53a1.09 1.09 0 01-.49.1zm1.24 1a.4.4 0 01-.08.27.33.33 0 01-.52 0 .76.76 0 01-.12-.43v-.28h.43a.43.43 0 01.21.19.62.62 0 01.08.22zM140.74 59.86v.19a.3.3 0 01-.19.07l-1.28.11v-.4h-.38v.41h-.55v.52h.56v.38h.39v-.38l1.31-.11q.66-.06.6-.66a1.39 1.39 0 00-.07-.33h-.41a.58.58 0 01.02.2zM138.36 59.45a.32.32 0 000-.22.27.27 0 00-.11-.21.23.23 0 00-.2-.05.27.27 0 00-.19.1.3.3 0 000 .22.32.32 0 00.1.21.3.3 0 00.21 0 .27.27 0 00.19-.05z"/>
    <path fill="#fff" transform="rotate(-6.8 139.898 59.07)" d="M138.72 58.79h2.31v.52h-2.31z"/>
    <path fill="#fff" d="M139.47 56.17h-.12a1.21 1.21 0 00-.74.44 1 1 0 00-.17.8 1 1 0 00.23.53 1 1 0 00.48.3 1.42 1.42 0 00.62 0 1.23 1.23 0 00.81-.43 1 1 0 00.19-.83 1 1 0 00-.71-.83 1.29 1.29 0 00-.59.02zm.92.93a.47.47 0 01-.13.44.94.94 0 01-.53.24 1 1 0 01-.62-.05.51.51 0 01-.13-.8 1 1 0 01.53-.24 1 1 0 01.61 0 .49.49 0 01.27.41zM137.91 54.82a.84.84 0 00.46.59l-.26.07.11.48 2.25-.52-.12-.51-1.6.37a.49.49 0 01-.38-.39.44.44 0 010-.33.5.5 0 01.3-.16l1.46-.34-.12-.51-1.49.35c-.52.13-.72.43-.61.9zM137.74 53.35a.65.65 0 00.55.1.59.59 0 00.41-.53 1.44 1.44 0 000-.47 1.2 1.2 0 010-.4.22.22 0 01.17-.16.24.24 0 01.23 0 .53.53 0 01.16.28.52.52 0 010 .35.37.37 0 01-.23.21l.14.49a.71.71 0 00.34-.23.8.8 0 00.17-.41 1.18 1.18 0 00-.05-.52 1.1 1.1 0 00-.37-.59.61.61 0 00-.56-.11.7.7 0 00-.28.17.63.63 0 00-.14.32 1.89 1.89 0 000 .5 1.37 1.37 0 010 .43.22.22 0 01-.15.15.24.24 0 01-.23 0 .38.38 0 01-.16-.24.46.46 0 010-.31.32.32 0 01.21-.18l-.15-.5a.7.7 0 00-.44.4 1 1 0 000 .7 1 1 0 00.38.55zM77.66 54H84l1.44 3.91h1.23L81.39 44h-1.12L75 57.88h1.24zm3.16-8.59l2.8 7.59H78zM88.77 43.95h1.18v13.94h-1.18zM95.53 57.3a4.88 4.88 0 002.74.77 5.21 5.21 0 003.56-1.16 5 5 0 001.57-3.37h-1.19a4.21 4.21 0 01-1.15 2.65 3.94 3.94 0 01-2.79.89 3.53 3.53 0 01-3-1.44 6.2 6.2 0 01-1.1-3.85v-1.7a6.14 6.14 0 011.13-3.92 3.64 3.64 0 013-1.42c2.27 0 3.56 1.19 3.85 3.55h1.19a5 5 0 00-1.45-3.3 5 5 0 00-3.53-1.2 5.09 5.09 0 00-2.81.78 4.91 4.91 0 00-1.87 2.21A7.83 7.83 0 0093 50v1.81a7.76 7.76 0 00.67 3.25 5 5 0 001.86 2.24zM107.24 52.21h3.54a5.13 5.13 0 003.51-1.07 3.81 3.81 0 001.21-3 3.86 3.86 0 00-1.26-3 5 5 0 00-3.43-1.14h-4.74v13.88h1.17zm0-7.27h3.65a3.63 3.63 0 012.54.88 3 3 0 01.9 2.31 2.92 2.92 0 01-.9 2.27 3.79 3.79 0 01-2.62.81h-3.57zM116.38 57.88l1.44-3.88h6.32l1.45 3.91h1.22L121.54 44h-1.12l-5.28 13.93zm4.62-12.5l2.8 7.59h-5.59zM91.19 74a13.25 13.25 0 00-2.85-1.07 7.7 7.7 0 01-2.72-1.18 2.12 2.12 0 01-.86-1.75 2.24 2.24 0 01.95-1.86 4.11 4.11 0 012.55-.71 3.78 3.78 0 012.62.86 2.94 2.94 0 011 2.3H93a3.94 3.94 0 00-.6-2.13 4 4 0 00-1.7-1.49 5.54 5.54 0 00-2.48-.54 5.4 5.4 0 00-3.37 1 3.22 3.22 0 00.1 5.26 10.62 10.62 0 003.2 1.31 8.52 8.52 0 013 1.28A2.41 2.41 0 0191 79a4.42 4.42 0 01-2.62.71 4.63 4.63 0 01-2.92-.85 2.77 2.77 0 01-1.11-2.32h-1.21a3.84 3.84 0 00.63 2.17 4.17 4.17 0 001.87 1.47 6.81 6.81 0 002.7.53 5.54 5.54 0 003.47-1 3.14 3.14 0 001.32-2.64 3.27 3.27 0 00-.49-1.81A4 4 0 0091.19 74zM105.77 72.64a7.84 7.84 0 00-.7-3.28 5.12 5.12 0 00-1.9-2.2 5.28 5.28 0 00-2.84-.77 5.12 5.12 0 00-2.84.79 5.2 5.2 0 00-1.91 2.26 8 8 0 00-.67 3.37v1.44a7 7 0 001.5 4.75 4.92 4.92 0 003.94 1.75 5.13 5.13 0 002.85-.79 5 5 0 001.9-2.24 7.92 7.92 0 00.67-3.37zm-1.18 1.63a6.28 6.28 0 01-1.12 4 3.7 3.7 0 01-3.12 1.43 3.77 3.77 0 01-3.12-1.45 6.16 6.16 0 01-1.15-3.92v-1.48a6.23 6.23 0 011.16-4 4.09 4.09 0 016.21 0 6.14 6.14 0 011.14 3.94zM118.41 76.17h-1.19a4.25 4.25 0 01-1.16 2.66 3.9 3.9 0 01-2.78.88 3.53 3.53 0 01-3-1.43 6.22 6.22 0 01-1.1-3.85v-1.71a6.16 6.16 0 011.12-3.92 3.67 3.67 0 013-1.41q3.42 0 3.86 3.55h1.19a4.66 4.66 0 00-5-4.55 5.08 5.08 0 00-2.8.78 5 5 0 00-1.88 2.22 7.92 7.92 0 00-.65 3.29v1.81a8 8 0 00.66 3.25 5.06 5.06 0 001.85 2.19 4.86 4.86 0 002.74.78 5.19 5.19 0 003.55-1.17 5 5 0 001.59-3.37zM74.56 62.88h53.12a.47.47 0 100-.93H74.56a.47.47 0 100 .93zM83.37 86.08a1.08 1.08 0 00-.73-.23 1.32 1.32 0 00-.53.11.85.85 0 00-.39.3.59.59 0 00-.14.39H82a.38.38 0 01.16-.31.72.72 0 01.42-.12.59.59 0 01.42.14.53.53 0 01.15.39V87h-.45a1.53 1.53 0 00-.9.23.77.77 0 00-.32.65.73.73 0 00.26.57.94.94 0 00.65.23 1 1 0 00.76-.34 1 1 0 00.07.29h.48a1.57 1.57 0 01-.1-.59v-1.32a.81.81 0 00-.23-.64zm-.18 1.75a.76.76 0 01-.29.3.8.8 0 01-.4.11.53.53 0 01-.37-.12.43.43 0 01-.15-.34c0-.33.28-.5.85-.5h.36zM84.28 85.9h.46v2.69h-.46zM84.51 85.45a.25.25 0 00.2-.08.24.24 0 00.07-.18.27.27 0 10-.54 0 .24.24 0 00.07.18.25.25 0 00.2.08zM85.88 86.48a.64.64 0 01.54-.25.6.6 0 01.44.17.64.64 0 01.2.42h.43a1 1 0 00-.32-.7 1.08 1.08 0 00-.75-.27 1.22 1.22 0 00-.64.17 1.11 1.11 0 00-.41.47 1.59 1.59 0 00-.14.7v.08a1.43 1.43 0 00.32 1 1.13 1.13 0 00.87.37 1.06 1.06 0 00.52-.13 1 1 0 00.39-.33.85.85 0 00.16-.44h-.43a.52.52 0 01-.21.37.64.64 0 01-.43.15.63.63 0 01-.54-.25 1.13 1.13 0 01-.19-.71v-.09a1.18 1.18 0 01.19-.73zM88.34 88.33a1 1 0 00.77.31.91.91 0 00.76-.38 1.59 1.59 0 00.28-1 1.6 1.6 0 00-.28-1 .9.9 0 00-.77-.37 1 1 0 00-.78.35v-.3h-.42v3.72h.46zm0-1.72a.67.67 0 01.63-.37.64.64 0 01.53.26 1.2 1.2 0 01.19.72 1.28 1.28 0 01-.19.78.64.64 0 01-.53.26.67.67 0 01-.63-.37zM91.75 87a1.53 1.53 0 00-.9.23.77.77 0 00-.32.65.72.72 0 00.25.57 1 1 0 00.66.23 1 1 0 00.76-.34 1 1 0 00.07.29h.48a1.39 1.39 0 01-.1-.59v-1.32a.81.81 0 00-.27-.64 1.1 1.1 0 00-.73-.23 1.41 1.41 0 00-.54.11.88.88 0 00-.38.3.6.6 0 00-.15.39h.47a.38.38 0 01.16-.31.7.7 0 01.42-.12.61.61 0 01.42.14.52.52 0 01.14.39V87zm.44.87a.67.67 0 01-.28.3.84.84 0 01-.41.11.57.57 0 01-.37-.12.46.46 0 01-.14-.34c0-.33.28-.5.84-.5h.36zM93.33 88.15a.27.27 0 00-.07.2.26.26 0 00.07.19.25.25 0 00.21.07.27.27 0 00.21-.07.27.27 0 00.08-.19.28.28 0 00-.08-.2.24.24 0 00-.21-.08.23.23 0 00-.21.08zM96.63 88a1.61 1.61 0 00.15-.71 1.44 1.44 0 00-.34-1 1.13 1.13 0 00-.88-.38 1.25 1.25 0 00-.64.17 1.21 1.21 0 00-.43.49 1.64 1.64 0 00-.15.71 1.45 1.45 0 00.34 1 1.13 1.13 0 00.88.38 1.14 1.14 0 00.64-.18 1.06 1.06 0 00.43-.48zm-.51 0a.68.68 0 01-.56.27A.65.65 0 0195 88a1.14 1.14 0 01-.21-.72 1.24 1.24 0 01.21-.78.7.7 0 011.1 0 1.16 1.16 0 01.21.72 1.33 1.33 0 01-.19.78zM97.69 86.21v-.31h-.45v2.69h.46v-1.91a.6.6 0 01.61-.39h.23v-.42a.37.37 0 00-.2 0 .71.71 0 00-.65.34zM101 88.52V85.9h-.42v.3a1 1 0 00-1.53 0 1.55 1.55 0 00-.29 1 1.65 1.65 0 00.29 1 .92.92 0 00.76.38.94.94 0 00.75-.32v.23a.72.72 0 01-.18.53.7.7 0 01-.53.19.91.91 0 01-.72-.36l-.24.27a1 1 0 00.43.34 1.4 1.4 0 00.57.13 1.17 1.17 0 00.83-.31 1.11 1.11 0 00.28-.76zm-.47-.67a.65.65 0 01-.63.4.63.63 0 01-.53-.26 1.59 1.59 0 010-1.49.61.61 0 01.52-.26.68.68 0 01.63.39zM101.64 88.9l1.51-3.93h-.39l-1.51 3.93h.39zM104.51 88.26a.74.74 0 01-.46-.13.51.51 0 01-.18-.37h-.46a.77.77 0 00.14.44.83.83 0 00.39.32 1.4 1.4 0 001.32-.1.7.7 0 00.28-.58.61.61 0 00-.1-.36.78.78 0 00-.32-.26 2.36 2.36 0 00-.55-.18 1.79 1.79 0 01-.48-.17.27.27 0 01-.13-.25.35.35 0 01.14-.28.6.6 0 01.39-.11.61.61 0 01.41.13.45.45 0 01.16.33h.46a.75.75 0 00-.28-.6 1.13 1.13 0 00-.75-.24 1.1 1.1 0 00-.71.23.69.69 0 00-.28.56.57.57 0 00.1.34.76.76 0 00.3.25 2.3 2.3 0 00.56.18 1.26 1.26 0 01.48.18.31.31 0 01.15.28.35.35 0 01-.16.29.77.77 0 01-.42.1zM107.11 85.85a1.24 1.24 0 00-.63.17 1.21 1.21 0 00-.43.49 1.65 1.65 0 00-.16.71 1.5 1.5 0 00.34 1 1.15 1.15 0 00.89.38 1.17 1.17 0 00.64-.18 1.06 1.06 0 00.43-.48 1.61 1.61 0 00.15-.71 1.44 1.44 0 00-.34-1 1.13 1.13 0 00-.89-.38zm.57 2.14a.72.72 0 01-1.12 0 1.2 1.2 0 01-.2-.72 1.31 1.31 0 01.2-.77.67.67 0 01.55-.27.67.67 0 01.56.27 1.16 1.16 0 01.21.72 1.33 1.33 0 01-.2.78zM110.39 88.51a1 1 0 00.39-.33.94.94 0 00.16-.44h-.44a.51.51 0 01-.2.37.68.68 0 01-.43.15.64.64 0 01-.55-.25 1.13 1.13 0 01-.19-.71v-.09a1.18 1.18 0 01.19-.73.64.64 0 01.54-.25.58.58 0 01.44.17.6.6 0 01.2.42h.44a1 1 0 00-.32-.7 1.09 1.09 0 00-.76-.27 1.19 1.19 0 00-.63.17 1.13 1.13 0 00-.42.47 1.75 1.75 0 00-.14.7v.08a1.48 1.48 0 00.32 1 1.14 1.14 0 00.88.37 1.08 1.08 0 00.52-.13zM113.22 88.59v-.84h.5v-.38h-.5V85h-.49l-1.62 2.51v.27h1.65v.84zm-1.59-1.22l1.07-1.67.06-.1v1.77zM115 88.26a.69.69 0 01-.45-.13.48.48 0 01-.19-.37h-.46a.77.77 0 00.14.44.94.94 0 00.39.32 1.32 1.32 0 00.57.12 1.24 1.24 0 00.75-.22.71.71 0 00.29-.58.61.61 0 00-.11-.36.74.74 0 00-.31-.26 2.46 2.46 0 00-.56-.18 1.79 1.79 0 01-.48-.17.29.29 0 01-.13-.25.35.35 0 01.14-.28.61.61 0 01.4-.11.6.6 0 01.4.13.42.42 0 01.16.33h.46a.72.72 0 00-.28-.6 1.12 1.12 0 00-.74-.24 1.13 1.13 0 00-.72.23.72.72 0 00-.28.56.65.65 0 00.1.34.84.84 0 00.3.25 2.46 2.46 0 00.56.18 1.4 1.4 0 01.49.18.35.35 0 010 .57.73.73 0 01-.44.1zM118.29 88.46a1.06 1.06 0 00.43-.48 1.61 1.61 0 00.15-.71 1.44 1.44 0 00-.34-1 1.13 1.13 0 00-.88-.38 1.25 1.25 0 00-.65.11 1.29 1.29 0 00-.43.49 1.64 1.64 0 00-.15.71 1.45 1.45 0 00.34 1 1.13 1.13 0 00.88.38 1.14 1.14 0 00.65-.12zm-1.4-1.19a1.24 1.24 0 01.21-.77.7.7 0 011.1 0 1.16 1.16 0 01.21.72 1.26 1.26 0 01-.2.77.67.67 0 01-.56.27.65.65 0 01-.55-.27 1.14 1.14 0 01-.21-.72z"/>
    <path d="M138.15 99.17v.31h-.59V101h-.38v-1.52h-.59v-.31zm2 1.87l-.07-1.1v-.52c0 .16-.1.38-.15.55l-.34 1h-.39l-.33-1.06c0-.15-.09-.37-.13-.53v.52l-.07 1.1h-.36l.14-1.87h.55l.32.91.13.48c.05-.17.09-.33.13-.47l.33-.92h.53l.15 1.87z" fill="#231f20"/>
</svg>
